0
SECTION
2
HEADER
9
$INSUNITS
70
4
9
$ACADVER
1
AC1014
9
$HANDSEED
5
FFFF
0
ENDSEC
0
SECTION
2
TABLES
0
TABLE
2
VPORT
5
8
100
AcDbSymbolTable
0
ENDTAB
0
TABLE
2
LTYPE
5
5
100
AcDbSymbolTable
0
LTYPE
5
14
100
AcDbSymbolTableRecord
100
AcDbLinetypeTableRecord
2
BYBLOCK
70
0
0
LTYPE
5
15
100
AcDbSymbolTableRecord
100
AcDbLinetypeTableRecord
2
BYLAYER
70
0
0
LTYPE
5
16
100
AcDbSymbolTableRecord
100
AcDbLinetypeTableRecord
2
DASHED
70
0
3
Dashed __ __ __ __ __ __ __ __ __ __ __ __ __ _
72
65
73
2
40
0.75
49
0.5
74
0
49
-0.25
74
0
0
ENDTAB
0
TABLE
2
LAYER
5
2
100
AcDbSymbolTable
70
2
0
LAYER
5
50
100
AcDbSymbolTableRecord
100
AcDbLayerTableRecord
2
0
70
0
62
7
6
CONTINUOUS
0
ENDTAB
0
TABLE
2
STYLE
5
3
100
AcDbSymbolTable
70
1
0
STYLE
5
11
100
AcDbSymbolTableRecord
100
AcDbTextStyleTableRecord
2
STANDARD
70
0
0
ENDTAB
0
TABLE
2
VIEW
5
6
100
AcDbSymbolTable
70
0
0
ENDTAB
0
TABLE
2
UCS
5
7
100
AcDbSymbolTable
70
0
0
ENDTAB
0
TABLE
2
APPID
5
9
100
AcDbSymbolTable
70
2
0
APPID
5
12
100
AcDbSymbolTableRecord
100
AcDbRegAppTableRecord
2
ACAD
70
0
0
ENDTAB
0
TABLE
2
DIMSTYLE
5
A
100
AcDbSymbolTable
70
1
0
ENDTAB
0
TABLE
2
BLOCK_RECORD
5
1
100
AcDbSymbolTable
70
1
0
BLOCK_RECORD
5
1F
100
AcDbSymbolTableRecord
100
AcDbBlockTableRecord
2
*MODEL_SPACE
0
BLOCK_RECORD
5
1B
100
AcDbSymbolTableRecord
100
AcDbBlockTableRecord
2
*PAPER_SPACE
0
ENDTAB
0
ENDSEC
0
SECTION
2
BLOCKS
0
BLOCK
5
20
100
AcDbEntity
100
AcDbBlockBegin
2
*MODEL_SPACE
0
ENDBLK
5
21
100
AcDbEntity
100
AcDbBlockEnd
0
BLOCK
5
1C
100
AcDbEntity
100
AcDbBlockBegin
2
*PAPER_SPACE
0
ENDBLK
5
1D
100
AcDbEntity
100
AcDbBlockEnd
0
ENDSEC
0
SECTION
2
ENTITIES
0
POINT
5
100
100
AcDbEntity
8
0
100
AcDbPoint
10
0
20
0
30
0
0
LWPOLYLINE
5
101
100
AcDbEntity
8
0
100
AcDbPolyline
90
4
70
1
43
0.0
10
-28.284271247461898
20
10
10
-120
20
10
10
-120
20
-10
10
-28.284271247461898
20
-10
42
5.8284271247461898
0
LWPOLYLINE
5
102
100
AcDbEntity
8
0
100
AcDbPolyline
90
137
70
1
43
0.0
10
-92.73040029955537
20
0.72098669065338017
10
-92.789848184115002
20
0.40676173223358042
10
-92.874774074083874
20
0.12650665296417121
10
-93.112565612322399
20
-0.42551103578704941
10
-93.341864978796551
20
-0.63782516466278183
10
-93.494731223112652
20
-0.73973599420684921
10
-93.707045351988384
20
-0.85013929353851425
10
-93.953329956060955
20
-0.95205012308258163
10
-94.208107029921123
20
-1.0030049418081675
10
-94.768616592413494
20
-1.0030049418081675
10
-94.997915958887646
20
-0.95205012308258163
10
-95.167767440802166
20
-0.90109411226410019
10
-95.303648447519848
20
-0.72275105463165401
10
-95.380081569677898
20
-0.55289927469390987
10
-95.397066807276317
20
-0.39153996454376339
10
-95.380081569677898
20
-0.30661407457489132
10
-95.303648447519848
20
-0.18771830545562868
10
-95.167767440802166
20
-0.18771830545562868
10
-95.082841550833294
20
-0.25565925584930543
10
-95.082841550833294
20
-0.42551103578704952
10
-95.048871373659679
20
-0.65481010423797725
10
-94.768616592413494
20
-0.80767575250763068
10
-94.505347048765728
20
-0.80767575250763068
10
-94.335495566851208
20
-0.77370587335724006
10
-94.004285370832989
20
-0.65481010423797736
10
-93.825941419130871
20
-0.48495832430023322
10
-93.571164345270702
20
-0.15374842630523813
10
-93.460761045939037
20
0.22841748250823851
10
-93.392820393568584
20
0.61058339132171502
10
-93.392820393568584
20
0.82289752019744755
10
-93.520208930498669
20
1.0521965886483753
10
-93.588149582869121
20
1.2730031873117054
10
-93.605134522444317
20
1.5192883874307239
10
-93.707045351988384
20
1.6891389752755726
10
-93.808956181532452
20
1.8844681645761097
10
-93.91935977888734
20
2.0373350049386585
10
-94.089210962778637
20
2.1647232438455188
10
-94.267554914480755
20
2.2156780625711048
10
-94.505347048765728
20
2.2836190129647815
10
-94.751631354815075
20
2.2666340733895867
10
-95.065856611258098
20
2.0203500653634636
10
-95.252693032747814
20
1.8335133458505237
10
-95.346111392504284
20
1.6211992169747913
10
-95.414052044874737
20
1.4173775578866565
10
-95.448022222048351
20
1.1371224786172474
10
-95.414052044874737
20
0.98425563825469853
10
-95.566918289190838
20
0.83988245977264298
10
-95.694306826120922
20
0.73797163022857548
10
-95.813202744251797
20
0.61058339132171524
10
-95.86415815902383
20
0.4577165509591663
10
-95.86415815902383
20
0.21143254293304325
10
-95.898128485209057
20
-0.026360187398377609
10
-95.898128485209057
20
-0.22168937669891475
10
-95.932098811394283
20
-0.42551103578704952
10
-95.915113573795864
20
-0.63782516466278194
10
-95.966068988567898
20
-0.79069081293243526
10
-96.034009640938351
20
-0.98602000223297237
10
-96.127427851683208
20
-1.5805000399221814
10
-96.212353592640468
20
-1.9626659487356579
10
-96.246323769814083
20
-2.2004574869741811
10
-96.314264422184536
20
-2.5146824453939809
10
-96.34823459935815
20
-2.8798634146322621
10
-96.492608373886654
20
-3.2110733126272573
10
-96.509593462473461
20
-3.4573573206533803
10
-96.611504292017528
20
-3.737613592015685
10
-96.696430032974789
20
-3.9923900698294057
10
-96.76437053633363
20
-4.3235999678244008
10
-96.840803583985874
20
-4.6208399866690053
10
-96.874773910171101
20
-4.8841101263632192
10
-96.891758998757908
20
-5.1558727358450307
10
-96.874773910171101
20
-5.4870826338400258
10
-96.857788747078487
20
-5.6824106310476674
10
-96.78984816921384
20
-5.8522624109854116
10
-96.823818495399067
20
-6.013621721135558
10
-96.993669828301975
20
-6.1664885614981069
10
-97.078595569259235
20
-6.2514132593740834
10
-97.23995435786874
20
-6.064576539861144
10
-97.290909772640774
20
-5.8182925318350209
10
-97.307894935733387
20
-5.5974859331716909
10
-97.307894935733387
20
-5.2662748430838002
10
-97.290909772640774
20
-5.0199908350576772
10
-97.256939520961353
20
-4.7737068270315541
10
-97.273924684053966
20
-4.5019442175497426
10
-97.222969194776127
20
-4.4255107973684682
10
-97.138043528324673
20
-4.2047041987051381
10
-97.044625243074009
20
-3.9074641798605336
10
-96.976684739715168
20
-3.737613592015685
10
-96.908744161850521
20
-3.4743434523214711
10
-96.840803583985874
20
-3.2450431917776479
10
-96.747385447746822
20
-3.0412215326895131
10
-96.857788747078487
20
-2.7439827059378041
10
-96.874773910171101
20
-2.3957866762747182
10
-96.874773910171101
20
-2.1325177286733998
10
-96.857788747078487
20
-1.9456810091604604
10
-96.908744161850521
20
-1.6484409903158559
10
-96.874773910171101
20
-1.1219019030203237
10
-96.747385447746822
20
-0.90109411226409808
10
-96.823818495399067
20
-0.56988421426910285
10
-96.76437053633363
20
-0.20470324503082177
10
-96.76437053633363
20
0.10952171338897809
10
-96.730400210148403
20
0.37279066099029645
10
-96.76437053633363
20
0.67003067983490094
10
-96.747385447746822
20
0.87385233892303571
10
-96.823818495399067
20
1.0861664677987681
10
-96.942714413529941
20
1.1710923577676402
10
-96.891758998757908
20
1.3664215470681773
10
-96.78984816921384
20
1.5702432061563121
10
-96.76437053633363
20
1.8165284062753306
10
-96.823818495399067
20
2.0373350049386607
10
-96.823818495399067
20
2.2326641942391978
10
-96.891758998757908
20
2.4025147820840465
10
-97.155028691417286
20
2.8101581002603151
10
-97.256939520961353
20
3.3112197781930552
10
-97.273924684053966
20
3.4640866185556041
10
-97.273924684053966
20
3.625444736612855
10
-97.155028691417286
20
3.7952965165505992
10
-96.976684739715168
20
3.9906257058511363
10
-96.696430032974789
20
3.9906257058511354
10
-96.161398177868435
20
3.8462525273690789
10
-95.915113573795864
20
3.778311576975403
10
-95.779232567078182
20
3.4810715581307985
10
-95.728277152306148
20
3.1923240090737917
10
-95.651844030148098
20
3.0649357701669313
10
-95.414052044874737
20
3.0819207097421266
10
-95.167767440802166
20
3.1923240090737917
10
-94.539317225939342
20
3.277249899042662
10
-94.284540152079174
20
3.2602649594674671
10
-93.987300133234569
20
3.175339069498595
10
-93.825941419130871
20
3.0819207097421253
10
-93.622119760042736
20
2.9800098801980579
10
-93.392820393568584
20
2.7846806908975208
10
-93.09558037472398
20
2.3006039525399764
10
-93.027640318399975
20
2.0373350049386572
10
-92.925729488855907
20
1.7485874558816517
10
-92.857788538462231
20
1.5023022557626331
10
-92.806833123690197
20
1.2730031873117054
10
-92.764370774752209
20
1.03521164907318
0
LWPOLYLINE
5
103
100
AcDbEntity
8
0
100
AcDbPolyline
90
5
70
1
43
0.0
10
-97.605134880072185
20
0.44073161138397321
10
-97.656090294844219
20
0.30485090268951526
10
-97.791971394694158
20
0.27087983144622912
10
-97.868404516852209
20
0.45771655095916852
10
-97.724030835455963
20
0.52565750135284517
0
LWPOLYLINE
5
104
100
AcDbEntity
8
0
100
AcDbPolyline
90
5
70
1
43
0.0
10
-97.256939520961353
20
-3.4743434523214711
10
-97.273924684053966
20
-3.6102241610159291
10
-97.392820602184841
20
-3.5932392214407338
10
-97.477746343142101
20
-3.5083133314718618
10
-97.341865187412807
20
-3.4064025019277944
0
LWPOLYLINE
5
105
100
AcDbEntity
8
0
100
AcDbPolyline
90
5
70
1
43
0.0
10
-90.844795441156933
20
6.9290536309609951
10
-90.980676745897838
20
6.8441277409921231
10
-91.125050520426342
20
6.8780982161889614
10
-91.082587575441906
20
7.0309638644586148
10
-90.963691210276195
20
7.0819198752770962
0
LWPOLYLINE
5
106
100
AcDbEntity
8
0
100
AcDbPolyline
90
28
70
1
43
0.0
10
-89.987045859819958
20
6.6148280764947476
10
-90.021016335016796
20
6.4789473678002896
10
-90.165389513498852
20
6.3175886536965908
10
-90.284285878664562
20
6.1477368737588467
10
-90.284285878664562
20
5.986378159655148
10
-90.19935998869569
20
5.8335119153390469
10
-90.114434694773266
20
5.7146161462197842
10
-90.114434694773266
20
5.4683315421472134
10
-90.19935998869569
20
5.256017413271481
10
-90.335241293436596
20
5.0861662293801846
10
-90.513585543161938
20
4.9417924548516812
10
-90.734392141825268
20
4.9248069192300381
10
-90.980676745897838
20
4.9417924548516812
10
-91.125050520426342
20
5.0352108146081509
10
-91.294901704317638
20
5.1541065837274136
10
-91.447767948633739
20
5.3324502374063076
10
-91.643097137934276
20
5.5702423716912808
10
-91.728022431856701
20
5.7995414401422094
10
-91.761992907053539
20
5.9693932200799535
10
-91.728022431856701
20
6.1307519341836523
10
-91.643097137934276
20
6.3175886536965917
10
-91.524200772768566
20
6.4619618321786474
10
-91.277916168695995
20
6.5978431369195532
10
-91.065602039820263
20
6.6318136121163906
10
-90.751377081400463
20
6.6657834912667813
10
-90.445644592768261
20
6.7507093812356533
10
-90.233330463892528
20
6.7676943208108487
10
-90.080464219576427
20
6.7507093812356533
0
LWPOLYLINE
5
107
100
AcDbEntity
8
0
100
AcDbPolyline
90
66
70
1
43
0.0
10
-89.88513503027589
20
2.9290532733331265
10
-89.936090445047924
20
2.8441279794107022
10
-90.114434694773266
20
2.7507096196542324
10
-90.233330463892528
20
2.6487987901101651
10
-90.284285878664562
20
2.4449771310220303
10
-90.3182563538614
20
2.1647220517526211
10
-90.41167471361787
20
1.8844681645761074
10
-90.352226233011791
20
1.6381829644570889
10
-90.428659653193066
20
1.4343613053689541
10
-90.445644592768261
20
1.1541062260995449
10
-90.479615067965099
20
0.85686739934783596
10
-90.479615067965099
20
0.55962618841033596
10
-90.445644592768261
20
0.19444641126495021
10
-90.479615067965099
20
-0.077316198216861282
10
-90.479615067965099
20
-0.37455502496857029
10
-90.428659653193066
20
-0.60385528551239354
10
-90.352226233011791
20
-0.82466188417572361
10
-90.428659653193066
20
-1.0879320238699375
10
-90.335241293436596
20
-1.3172310923208652
10
-90.335241293436596
20
-1.7163819407095371
10
-90.3182563538614
20
-1.8692475889791904
10
-90.250315403467724
20
-2.0985466574301181
10
-90.233330463892528
20
-2.3448318575491367
10
-90.165389513498852
20
-2.5146836374868808
10
-90.165389513498852
20
-2.6760417555441318
10
-90.097449159151623
20
-2.8289085959066806
10
-90.182375049120495
20
-2.981774244176334
10
-90.284285878664562
20
-3.0242365931143222
10
-90.352226233011791
20
-2.981774244176334
10
-90.428659653193066
20
-2.8119224642385898
10
-90.479615067965099
20
-2.6165932749380527
10
-90.513585543161938
20
-2.4637276266683994
10
-90.598510837084362
20
-2.2938758467306553
10
-90.598510837084362
20
-2.1325177286734043
10
-90.717407202250072
20
-1.8692475889791904
10
-90.717407202250072
20
-1.631456050740665
10
-90.751377081400463
20
-1.4531118010153232
10
-90.751377081400463
20
-1.2153202627767978
10
-90.810824965960094
20
-1.0030061339010654
10
-90.844795441156933
20
-0.48495951639313084
10
-90.878765916353771
20
-0.34058514581817967
10
-90.895750855928966
20
-0.0093752478231845515
10
-90.878765916353771
20
0.21143135084014553
10
-90.895750855928966
20
0.45771655095916408
10
-90.895750855928966
20
0.6700306798348965
10
-90.980676745897838
20
0.83988126767974514
10
-91.125050520426342
20
0.92480715764861732
10
-91.226961349970409
20
1.0352104569802822
10
-91.328872179514477
20
1.3664203549752774
10
-91.362842058664867
20
1.5532570744882168
10
-91.362842058664867
20
2.2326630021462979
10
-91.328872179514477
20
2.5299030209909024
10
-91.379826998240063
20
2.8441279794107022
10
-91.396812533861706
20
3.0479496384988369
10
-91.464752888208935
20
3.243278827799374
10
-91.396812533861706
20
3.4471004868875088
10
-91.294901704317638
20
3.6084592009912075
10
-91.159020399576733
20
3.6594146157632412
10
-90.963691210276195
20
3.7103700305352749
10
-90.751377081400463
20
3.6594146157632412
10
-90.598510837084362
20
3.5235333110223355
10
-90.445644592768261
20
3.3961450721154751
10
-90.250315403467724
20
3.3961450721154751
10
-90.114434694773266
20
3.2602637673745694
10
-89.987045859819958
20
3.1753378774056973
10
-89.88513503027589
20
3.0819195176492276
0
LWPOLYLINE
5
108
100
AcDbEntity
8
0
100
AcDbPolyline
90
122
70
1
43
0.0
10
-82.99740526629121
20
-1.9626659487356646
10
-83.09082362604768
20
-2.0475918387045366
10
-83.243689274317333
20
-2.0475918387045366
10
-83.422033524042675
20
-2.013621959554146
10
-83.6598250622812
20
-1.9626659487356646
10
-83.940080141550609
20
-1.996635827886055
10
-84.203350281244823
20
-1.945681009160469
10
-84.619486069208691
20
-1.945681009160469
10
-84.916726088053295
20
-1.9286960695852737
10
-85.24793598604829
20
-1.8522626494039993
10
-85.799953674799511
20
-1.8522626494039971
10
-86.029252743250439
20
-1.8692475889791926
10
-86.292521690851757
20
-1.8522626494039971
10
-86.530314421183178
20
-1.945681009160467
10
-86.793583368784496
20
-1.9626659487356621
10
-87.073838448053905
20
-1.9626659487356621
10
-87.328614925867626
20
-1.9966358278860528
10
-87.574900125986645
20
-1.9456810091604668
10
-87.676810955530712
20
-1.996635827886053
10
-88.041991328722546
20
-2.0136219595541434
10
-88.237320518023083
20
-2.0136219595541438
10
-88.466620182520458
20
-2.0815617178549251
10
-88.551545476442882
20
-2.1834725473989924
10
-88.704411720758984
20
-2.1834725473989924
10
-88.848785495287487
20
-2.0985466574301181
10
-88.848785495287487
20
-1.9626659487356601
10
-88.755367135531017
20
-1.7843216990103183
10
-88.602500891214916
20
-1.521052751409
10
-88.356216287142345
20
-1.3512009714712581
10
-88.152394628054211
20
-1.0879320238699399
10
-87.974050974375317
20
-0.90109530435700036
10
-87.821184134012768
20
-0.70576611505646325
10
-87.642841076380321
20
-0.53591433511871911
10
-87.439019417292187
20
-0.37455502496857263
10
-87.27766010714204
20
-0.15374842630524255
10
-87.022883629328319
20
0.092535581720880472
10
-86.725643610483715
20
0.35580572141509437
10
-86.445388531214306
20
0.63606080068450355
10
-86.148148512369701
20
0.87385233892302894
10
-85.884878372675487
20
1.1201363469491519
10
-85.596132015711376
20
1.3069730664620913
10
-85.281905865198681
20
1.4853173161874331
10
-84.984667038446972
20
1.5532570744882144
10
-84.831800198084423
20
1.7825573350320378
10
-84.636471008783886
20
1.9184380437264936
10
-84.373202061182567
20
2.0373338128457559
10
-84.186365341669628
20
2.1986931229959028
10
-84.118424391275951
20
2.3175888921151655
10
-84.058975910669872
20
2.4025147820840385
10
-84.152394270426342
20
2.4789476062188651
10
-84.356215929514477
20
2.4194997216592338
10
-84.619486069208691
20
2.4194997216592342
10
-84.789337849146435
20
2.351558771265557
10
-84.984667038446972
20
2.351558771265557
10
-85.171502565867016
20
2.2666340733895805
10
-85.46874258471162
20
2.1817081834207102
10
-85.799953674799511
20
2.0967822934518381
10
-86.148148512369701
20
1.9354229833016914
10
-86.547299360758373
20
1.7995422746072334
10
-86.912479137903759
20
1.7655712033639472
10
-87.260675167566845
20
1.7146163846383613
10
-87.659826015955517
20
1.7655712033639472
10
-88.008020853525707
20
1.7995422746072334
10
-88.305260872370312
20
1.9184380437264961
10
-88.534560536867687
20
2.0967822934518376
10
-88.619485830790111
20
2.3175888921151677
10
-88.636471366411755
20
2.4959331418405108
10
-88.619485830790111
20
2.7167397405038409
10
-88.466620182520458
20
2.912068929804378
10
-88.237320518023083
20
3.0649345780740314
10
-87.974050974375317
20
3.1328755284677081
10
-87.676810955530712
20
3.1753378774056964
10
-87.37107846689851
20
3.1753378774056951
10
-87.005897497660229
20
3.0819207097421208
10
-86.513328289515087
20
3.0649345780740296
10
-86.131163572794506
20
3.06493457807403
10
-85.579145884043285
20
3.0819207097421204
10
-85.196981167322704
20
3.1328755284677055
10
-84.772352909571239
20
3.1328755284677055
10
-84.356215929514477
20
3.2262938882241752
10
-84.041990971094677
20
3.2432788277993705
10
-83.804199432856151
20
3.2093089486489799
10
-83.540930485254833
20
3.1158905888925092
10
-83.328615164286205
20
3.1158905888925092
10
-83.107808565622875
20
3.0479496384988325
10
-83.073837494379589
20
2.9290538693795698
10
-83.022882675654003
20
2.750709619654228
10
-83.09082362604768
20
2.6657843257318037
10
-83.243689274317333
20
2.4449771310220259
10
-83.506959414011547
20
2.1986931229959032
10
-83.838169312006542
20
1.9524079228768845
10
-84.152394270426342
20
1.7146163846383591
10
-84.441141819483349
20
1.5532570744882126
10
-84.636471008783886
20
1.4343613053689497
10
-85.196981167322704
20
1.0521965886483688
10
-85.579145884043285
20
0.87385233892302927
10
-85.816938614374706
20
0.65304574025969908
10
-86.513328289515087
20
0.10952052129607634
10
-86.878509258753368
20
-0.20470443712372366
10
-87.158764338022777
20
-0.48495951639313295
10
-87.328614925867626
20
-0.70576611505646303
10
-87.506959175592968
20
-0.867124233113714
10
-87.659826015955517
20
-0.96903506265778139
10
-87.770229315287182
20
-1.1728567217459163
10
-87.923094963556835
20
-1.3342160318960627
10
-87.974050974375317
20
-1.4191419218649348
10
-87.889125084406444
20
-1.4870816801657161
10
-87.659826015955517
20
-1.4870816801657161
10
-87.439019417292187
20
-1.5210527514090022
10
-87.073838448053905
20
-1.5210527514090024
10
-86.394432520395824
20
-1.4870816801657163
10
-85.961311792856762
20
-1.4531118010153257
10
-85.56216094446809
20
-1.4531118010153257
10
-85.103562807566234
20
-1.5040678118338071
10
-84.704411959177563
20
-1.5210527514090024
10
-84.424156879908153
20
-1.5974849794973836
10
-84.152394270426342
20
-1.648440990315865
10
-83.804199432856151
20
-1.648440990315865
10
-83.540930485254833
20
-1.6993970011343464
10
-83.260674213892528
20
-1.7333668802847371
10
-83.141779636866161
20
-1.7333668802847368
10
-83.022882675654003
20
-1.7503518198599322
0
LWPOLYLINE
5
109
100
AcDbEntity
8
0
100
AcDbPolyline
90
122
70
1
43
0.0
10
-76.602246498591015
20
-1.962665948735669
10
-76.695663666254589
20
-2.0475918387045411
10
-76.848530506617138
20
-2.0475918387045411
10
-77.02687475634248
20
-2.0136219595541505
10
-77.264666294581005
20
-1.962665948735669
10
-77.544920181757519
20
-1.9966358278860594
10
-77.808191513544628
20
-1.9456810091604713
10
-78.224327301508495
20
-1.9456810091604713
10
-78.521566128260204
20
-1.928696069585276
10
-78.852777218348095
20
-1.8522626494040015
10
-79.40479371500642
20
-1.8522626494040015
10
-79.634092783457348
20
-1.8692475889791971
10
-79.897362923151562
20
-1.8522626494040015
10
-80.135154461390087
20
-1.9456810091604715
10
-80.398424601084301
20
-1.9626659487356666
10
-80.67867968035371
20
-1.9626659487356666
10
-80.933456158167431
20
-1.9966358278860572
10
-81.179740166193554
20
-1.9456810091604713
10
-81.281652187830517
20
-1.9966358278860574
10
-81.646831964975902
20
-2.0136219595541456
10
-81.84216115427644
20
-2.013621959554146
10
-82.071460222727367
20
-2.0815617178549273
10
-82.156386112696239
20
-2.1834725473989947
10
-82.309252953058788
20
-2.1834725473989947
10
-82.453626131540844
20
-2.0985466574301226
10
-82.453626131540844
20
-1.9626659487356646
10
-82.360207771784374
20
-1.7843216990103228
10
-82.207342123514721
20
-1.5210527514090044
10
-81.961056923395702
20
-1.3512009714712603
10
-81.757235264307567
20
-1.0879320238699421
10
-81.578891014582226
20
-0.90109530435700258
10
-81.426025366312572
20
-0.70576611505646547
10
-81.247681116587231
20
-0.53591433511872133
10
-81.043859457499096
20
-0.37455502496857485
10
-80.882501339441845
20
-0.15374842630524699
10
-80.627723669535229
20
0.092535581720876031
10
-80.330483650690624
20
0.35580572141508993
10
-80.050228571421215
20
0.63606080068449911
10
-79.75298855257661
20
0.8738523389230245
10
-79.489719604975292
20
1.1201363469491474
10
-79.200972055918285
20
1.3069730664620869
10
-78.886747097498485
20
1.4853173161874287
10
-78.589507078653881
20
1.5532570744882099
10
-78.436641430384228
20
1.7825573350320334
10
-78.241312241083691
20
1.9184380437264914
10
-77.978040909296581
20
2.0373338128457537
10
-77.791206573969433
20
2.1986931229959006
10
-77.72326443148286
20
2.3175888921151633
10
-77.663817142969677
20
2.402514782084034
10
-77.757234310633251
20
2.4789476062188607
10
-77.961055969721386
20
2.4194997216592293
10
-78.224327301508495
20
2.4194997216592298
10
-78.394177889353344
20
2.3515587712655526
10
-78.589507078653881
20
2.3515587712655526
10
-78.77634379816682
20
2.2666340733895773
10
-79.073583817011425
20
2.1817081834207057
10
-79.40479371500642
20
2.0967822934518336
10
-79.75298855257661
20
1.9354229833016869
10
-80.152139400965282
20
1.7995422746072289
10
-80.517320370203564
20
1.7655712033639428
10
-80.865515207773754
20
1.7146163846383569
10
-81.264666056162426
20
1.7655712033639428
10
-81.612862085825512
20
1.7995422746072312
10
-81.910102104670116
20
1.9184380437264938
10
-82.139401173121044
20
2.0967822934518354
10
-82.224327063089916
20
2.3175888921151655
10
-82.241312002665111
20
2.4959331418405073
10
-82.224327063089916
20
2.7167397405038374
10
-82.071460222727367
20
2.9120689298043745
10
-81.84216115427644
20
3.0649345780740269
10
-81.578891014582226
20
3.1328755284677037
10
-81.281652187830517
20
3.175337877405692
10
-80.975918507105419
20
3.175337877405692
10
-80.610738729960033
20
3.0819207097421177
10
-80.118169521814892
20
3.064934578074026
10
-79.736003613001415
20
3.0649345780740256
10
-79.18398711634309
20
3.081920709742116
10
-78.801821207529613
20
3.1328755284677023
10
-78.377192949778149
20
3.1328755284677023
10
-77.961055969721386
20
3.2262938882241707
10
-77.646832203394482
20
3.243278827799366
10
-77.409040665155956
20
3.2093089486489754
10
-77.145769333368847
20
3.1158905888925057
10
-76.933455204493114
20
3.1158905888925057
10
-76.712648605829784
20
3.0479496384988289
10
-76.678678726679394
20
2.9290538693795662
10
-76.627723907953808
20
2.7507096196542244
10
-76.695663666254589
20
2.6657843257318001
10
-76.848530506617138
20
2.4449771310220223
10
-77.111799454218456
20
2.1986931229958997
10
-77.443010544306347
20
1.95240792287688
10
-77.757234310633251
20
1.7146163846383546
10
-78.045983051783153
20
1.5532570744882104
10
-78.241312241083691
20
1.4343613053689475
10
-78.801821207529613
20
1.0521965886483666
10
-79.18398711634309
20
0.87385233892302483
10
-79.421778654581615
20
0.65304574025969464
10
-80.118169521814892
20
0.1095205212960719
10
-80.483350491053173
20
-0.2047044371237281
10
-80.763604378229687
20
-0.48495951639313739
10
-80.933456158167431
20
-0.70576611505646747
10
-81.111800407892773
20
-0.86712423311371845
10
-81.264666056162426
20
-0.96903506265778583
10
-81.375069355494091
20
-1.1728567217459185
10
-81.52793619585664
20
-1.334216031896065
10
-81.578891014582226
20
-1.419141921864937
10
-81.493966316706249
20
-1.4870816801657183
10
-81.264666056162426
20
-1.4870816801657183
10
-81.043859457499096
20
-1.5210527514090044
10
-80.67867968035371
20
-1.5210527514090069
10
-79.999273752695629
20
-1.4870816801657207
10
-79.566151833063671
20
-1.4531118010153301
10
-79.167002176767895
20
-1.4531118010153301
10
-78.708402847773144
20
-1.5040678118338116
10
-78.309251999384472
20
-1.5210527514090069
10
-78.028998112207958
20
-1.5974849794973858
10
-77.757234310633251
20
-1.6484409903158672
10
-77.409040665155956
20
-1.6484409903158672
10
-77.145769333368847
20
-1.6993970011343509
10
-76.865515446192333
20
-1.7333668802847415
10
-76.746618484980175
20
-1.7333668802847413
10
-76.627723907953808
20
-1.7503518198599366
0
LWPOLYLINE
5
110
100
AcDbEntity
8
0
100
AcDbPolyline
90
5
70
1
43
0.0
10
-71.514942383295605
20
-0.22168937669892808
10
-71.616852020746776
20
-0.28963032709260478
10
-71.710271572596142
20
-0.25565925584931865
10
-71.710271572596142
20
-0.15374842630525132
10
-71.548912262445995
20
-0.077316198216872509
0
LWPOLYLINE
5
111
100
AcDbEntity
8
0
100
AcDbPolyline
90
83
70
1
43
0.0
10
-71.463987564570019
20
-1.7333668802847435
10
-71.480972504145214
20
-1.8522626494040062
10
-71.599867081171581
20
-1.9796508883108666
10
-71.727256512171337
20
-1.9796508883108666
10
-71.863138412958691
20
-1.8352777098288109
10
-71.931078171259472
20
-1.6144711111654808
10
-72.041482662684032
20
-1.436126861440139
10
-72.109422420984814
20
-1.1898416613211205
10
-72.177362179285595
20
-1.1219019030203392
10
-72.279274200922558
20
-1.1728567217459251
10
-72.423646187311718
20
-1.2662750815023949
10
-72.576513027674267
20
-1.4531118010153343
10
-72.82279703570039
20
-1.59748497949739
10
-72.975663876062939
20
-1.7503518198599388
10
-73.238932823664257
20
-1.8862325285543966
10
-73.536174034601757
20
-1.9966358278860616
10
-73.790950512415478
20
-2.0815617178549335
10
-74.020249580866405
20
-2.1495026682486085
10
-74.19010136080415
20
-2.2174436186422852
10
-74.368445610529491
20
-2.1664876078238038
10
-74.614729618555614
20
-2.1325177286734127
10
-74.903478359705517
20
-2.01362195955415
10
-75.166747307306835
20
-1.8522626494040038
10
-75.328106617456982
20
-1.6484409903158692
10
-75.447001194483349
20
-1.4191419218649415
10
-75.463986134058544
20
-1.0539609526266602
10
-75.463986134058544
20
-0.80767694460053718
10
-75.413031315332958
20
-0.53591433511872566
10
-75.251672005182812
20
-0.25565925584931659
10
-75.098807549006054
20
0.0076096917520017751
10
-74.886493420130321
20
0.19444641126494119
10
-74.665686821466991
20
0.35580572141508771
10
-74.368445610529491
20
0.40676173223356915
10
-74.105176662928173
20
0.44073161138395978
10
-73.807935451990673
20
0.50867136968474103
10
-73.553158974176952
20
0.67003067983488751
10
-73.221947884089062
20
0.83988245977262932
10
-73.060590958124706
20
0.90782221807341068
10
-72.890739178186962
20
0.95877822889189213
10
-72.82279703570039
20
1.137122478617234
10
-72.958678936487743
20
1.3834064866433571
10
-73.12003824663789
20
1.6042130853066872
10
-73.459741806513378
20
1.9184380437264872
10
-73.807935451990673
20
2.0203500653634503
10
-74.088191723352978
20
2.0373350049386478
10
-74.19010136080415
20
2.0203500653634521
10
-74.368445610529491
20
2.0203500653634521
10
-74.580759739405224
20
1.9184380437264892
10
-74.767596458918163
20
1.7995422746072265
10
-74.996895527369091
20
1.7655723954568359
10
-75.251672005182812
20
1.7655723954568361
10
-75.548913216120312
20
1.6891389752755617
10
-75.81218216372163
20
1.6891389752755617
10
-76.024496292597362
20
1.7995422746072265
10
-76.177363132959911
20
1.9524091149697753
10
-76.194348072535107
20
2.1647232438455077
10
-76.143393253809521
20
2.3515599633584472
10
-75.965049004084179
20
2.5638734961877319
10
-75.778212284571239
20
2.8101581002603027
10
-75.548913216120312
20
2.9969948197732421
10
-75.294136738306591
20
3.1328761245141479
10
-75.013880466944286
20
3.3621751929650756
10
-74.750611519342968
20
3.4810715581307861
10
-74.266535973078319
20
3.5744899178872553
10
-73.850400185114452
20
3.6084597970376455
10
-73.553158974176952
20
3.5235345031152212
10
-73.306874966150829
20
3.3961456681619131
10
-73.043606018549511
20
3.311219778193041
10
-72.746364807612011
20
3.1158905888925039
10
-72.593497967249462
20
2.9630243445764015
10
-72.440631126886913
20
2.7167397405038307
10
-72.330229019648144
20
2.4025147820840309
10
-72.245304321772167
20
2.0967822934518288
10
-72.126407360560009
20
1.6891389752755592
10
-72.016002869135448
20
1.3834064866433571
10
-71.999017929560253
20
1.1201363469491432
10
-72.016002869135448
20
0.7889264489541481
10
-71.931078171259472
20
0.40676173223356699
10
-71.880123352533886
20
0.0076096917519996587
10
-71.727256512171337
20
-0.68878117548127682
10
-71.633839344507763
20
-0.95205012308259507
10
-71.548912262445995
20
-1.1898416613211205
10
-71.480972504145214
20
-1.487081680165725
0
LWPOLYLINE
5
112
100
AcDbEntity
8
0
100
AcDbPolyline
90
5
70
1
43
0.0
10
-72.19434711886079
20
-1.6824108694662621
10
-72.262289261347362
20
-1.7333668802847435
10
-72.406661247736523
20
-1.6824108694662621
10
-72.364198898798534
20
-1.5805000399221947
10
-72.262289261347362
20
-1.5210527514090111
0
LWPOLYLINE
5
113
100
AcDbEntity
8
0
100
AcDbPolyline
90
26
70
1
43
0.0
10
-72.644455170160839
20
0.075550642145676417
10
-72.71239492846162
20
0.17746147168974383
10
-72.958678936487743
20
0.2454024220834207
10
-73.170993065363476
20
0.22841748250822538
10
-73.357829784876415
20
0.14349159253935329
10
-73.570143913752148
20
0.075550642145676541
10
-73.790950512415478
20
-0.04334512697358614
10
-74.00326464129121
20
-0.077316198216870066
10
-74.19010136080415
20
-0.1707333658804443
10
-74.351460670954296
20
-0.2896303270926025
10
-74.453370308405468
20
-0.44249597536225588
10
-74.580759739405224
20
-0.63782516466279304
10
-74.614729618555614
20
-0.80767694460053718
10
-74.682671761042187
20
-0.96903506265778816
10
-74.682671761042187
20
-1.1728567217459229
10
-74.597744678980419
20
-1.3512009714712647
10
-74.368445610529491
20
-1.4191419218649415
10
-74.122161602503368
20
-1.4191419218649417
10
-73.850400185114452
20
-1.3512009714712649
10
-73.723010754114696
20
-1.2153202627768067
10
-73.553158974176952
20
-1.1728567217459254
10
-73.15400812578828
20
-0.90109530435700935
10
-72.958678936487743
20
-0.77370587335725338
10
-72.82279703570039
20
-0.5528992746939233
10
-72.67842504931123
20
-0.37455502496858145
10
-72.661440109736034
20
-0.13676348673005601
0
ENDSEC
0
SECTION
2
OBJECTS
0
DICTIONARY
5
C
100
AcDbDictionary
3
ACAD_GROUP
350
D
3
ACAD_MLINESTYLE
350
17
0
DICTIONARY
5
D
100
AcDbDictionary
0
DICTIONARY
5
1A
330
C
100
AcDbDictionary
0
DICTIONARY
5
17
100
AcDbDictionary
0
ENDSEC
0
EOF
